<svg xmlns="http://www.w3.org/2000/svg" width="151.906" height="38.04"><path fill="red" d="M9.35 21.43v8.68h2.44V7.45H8.15c-3.59 0-6.6 2.38-6.6 7.13 0 3.39 1.33 5.23 3.33 6.25L.63 30.11h2.83l3.86-8.68zm0-2.03h-1.3c-2.12 0-3.87-1.17-3.87-4.82 0-3.77 1.91-5.07 3.87-5.07h1.3z"/><path d="M36.26 28.09H35V14.14h-7.42v1.36c0 4.25-.16 9.19-1.62 12.59h-.98v5.16h2.22v-3.14h6.85v3.14h2.21zm10.75.95l-.57-1.9c-.63.44-1.74 1.07-3.14 1.07-1.96 0-2.98-1.9-2.98-5.51h6.66v-1.37c0-5.42-1.74-7.41-4.41-7.41-3.39 0-4.82 3.74-4.82 8.87 0 4.92 2.03 7.55 5.33 7.55 1.59 0 2.92-.51 3.93-1.3zm-25.9-14.9v6.78h-3.68v-6.78h-2.47v15.97h2.47v-7.16h3.68v7.16h2.44V14.14zM56.2 30.11h2.7l-4.53-8.46 3.96-7.51h-2.51l-3.83 7.38v-7.38h-2.47v15.97h2.47v-7.95zm8.5.23c1.46 0 2.47-.48 3.33-1.21l-.57-1.84c-.57.51-1.49.99-2.7.99-1.99 0-2.95-2.29-2.95-6.28 0-4.03 1.27-6.02 3.05-6.02 1.01 0 1.96.54 2.63 1.11l.35-2.35c-.7-.44-1.52-.82-2.95-.82-3.74 0-5.67 3.2-5.67 8.21 0 5.45 2.06 8.21 5.48 8.21zm-32.14-2.25h-4.25c1.33-3.4 1.49-8.31 1.49-11.67v-.28h2.76zm10.01-12.14c1.43 0 1.87 1.99 1.87 4.72h-4.09c.16-2.85.7-4.72 2.22-4.72zm41.4 14.16h1.59V7.45h-9.92v22.66h1.58V8.75h6.75zm9.23.32c2.76 0 4.88-3.1 4.88-8.4 0-5.48-2.12-8.21-4.88-8.21s-4.88 3.08-4.88 8.4c0 5.45 2.12 8.21 4.88 8.21zm0-1.2c-1.87 0-3.39-2.13-3.39-7.1 0-4.85 1.52-7.07 3.39-7.07s3.39 2.06 3.39 7.07c0 4.82-1.52 7.1-3.39 7.1zm12.17-1.02h1.24l2.44-9.38c.25-.98.44-1.9.6-3.01h.13c0 1.08-.07 2.15 0 3.45l.38 10.84h1.49l-.64-15.97h-1.9l-2.5 9.51c-.29 1.08-.48 2.12-.54 3.01h-.1c-.06-.89-.22-1.93-.5-3.01l-2.48-9.51h-1.87l-.63 15.97h1.27l.38-10.84c.06-1.36 0-2.37 0-3.42h.12c.16 1.01.32 1.93.61 2.98zm13.54 2.22c2.75 0 4.88-3.1 4.88-8.4 0-5.48-2.13-8.21-4.88-8.21-2.76 0-4.89 3.08-4.89 8.4 0 5.45 2.13 8.21 4.89 8.21zm0-1.2c-1.87 0-3.4-2.13-3.4-7.1 0-4.85 1.53-7.07 3.4-7.07 1.87 0 3.39 2.06 3.39 7.07 0 4.82-1.52 7.1-3.39 7.1zm22.15 4.02v-4.34h-1.45V14.14h-1.49v14.77h-4.31V14.14h-1.49v14.77H128V14.14h-1.49v15.97h13.19l.19 3.14zm2.38-3.14h2.57c3.01 0 5.1-1.68 5.1-5.07 0-3.33-1.96-4.97-5-4.97h-1.18v-5.93h-1.49zm2.6-8.87c2.28 0 3.62 1.14 3.62 3.83 0 2.76-1.53 3.87-3.78 3.87h-.95v-7.7z"/></svg>