<svg xmlns="http://www.w3.org/2000/svg" preserveAspectRatio="xMidYMid" width="94" height="86"><defs><style>.cls-3 { fill: #da0e16; } .cls-5 { fill: #393837; }</style></defs><g id="webmaster" fill-rule="evenodd"><path d="M23 56l-5 5-18-18 18-18 5 5-13 13 13 13z" id="path-1" class="cls-3"/><path d="M71 30l5-5 18 18-18 18-5-5 13-13-13-13z" id="path-2" class="cls-3"/><path d="M71 13.955c0-3.902-1.589-7.431-4.151-9.975l-4.187 11.967-11.324-3.984 4.188-11.97c-7.039.739-12.526 6.707-12.526 13.962 0 3.903 1.589 7.431 4.151 9.975l-11.625 34.153c-7.039.739-12.526 6.706-12.526 13.962 0 3.902 1.589 7.431 4.151 9.975l4.187-11.967 11.324 3.984-4.188 11.969c7.039-.738 12.526-6.706 12.526-13.961 0-3.902-1.589-7.431-4.151-9.975l11.625-34.153c7.039-.739 12.526-6.706 12.526-13.962z" id="path-3" class="cls-5"/></g></svg>
