<?xml version="1.0"?><svg xmlns="http://www.w3.org/2000/svg" width="16" height="16" viewBox="0 0 16 16">
  <defs>
    <linearGradient id="a" x1="50%" x2="50%" y1="0%" y2="100%">
      <stop stop-color="#FFFFFF" offset="0%"/>
      <stop stop-color="#C0C0C0" offset="100%"/>
    </linearGradient>
    <linearGradient id="b" x1="50%" x2="50%" y1="0%" y2="100%">
      <stop stop-color="#FFFFFF" offset="0%"/>
      <stop stop-color="#EDEDED" offset="100%"/>
    </linearGradient>
  </defs>
  <g fill="none" fill-rule="evenodd">
    <circle cx="8" cy="8" r="8" fill="url(#a)"/>
    <circle cx="8" cy="8" r="7" fill="url(#b)"/>
    <path fill="#0077FF" d="M8.8426318,9.01742337 L8.8426318,13.837965 C8.8426318,13.9247695 8.44909546,13.994213 8.00106947,14 C7.5712067,13.994213 7.15950714,13.9247695 7.15950714,13.837965 L7.15950714,9.01742337 L3.01223954,5.140157 C2.94564108,5.07650039 3.15754526,4.77557822 3.48448315,4.46308213 C3.81142103,4.15058603 4.13230451,3.94804227 4.19284856,4.01169888 L7.99501507,7.55910826 L11.7971816,4.01169888 C11.86378,3.94804227 12.1786091,4.15058603 12.505547,4.46308213 C12.8324849,4.77557822 13.0504435,5.07650039 12.9898994,5.140157 L8.8426318,9.01742337 Z"/>
  </g>
</svg>
