<?xml version="1.0" encoding="utf-8"?>
<!-- Generator: Adobe Illustrator 18.0.0, SVG Export Plug-In . SVG Version: 6.00 Build 0)  -->
<!DOCTYPE svg PUBLIC "-//W3C//DTD SVG 1.1//EN" "http://www.w3.org/Graphics/SVG/1.1/DTD/svg11.dtd">
<svg version="1.1" id="Layer_1" xmlns="http://www.w3.org/2000/svg" xmlns:xlink="http://www.w3.org/1999/xlink" x="0px" y="0px"
	 width="66px" height="66px" viewBox="0 0 66 66" enable-background="new 0 0 66 66" xml:space="preserve">
<g id="XMLID_2_">
	<path id="XMLID_4_" fill="#67655D" d="M18.4,20.2c-7.1,0-12.9,5.8-12.9,12.9c0,5.5,3.5,10.2,8.4,12.1C5.9,47.2,0,54.1,0,62.7V65
		h28.1V24.6C25.7,21.9,22.2,20.2,18.4,20.2z"/>
	<g id="XMLID_1_">
		<path id="XMLID_3458_" fill="#9A9588" d="M35.8,45.2c4.9-1.8,8.4-6.5,8.4-12.1c0-7.1-5.8-12.9-12.9-12.9
			c-7.1,0-12.9,5.8-12.9,12.9c0,5.5,3.5,10.2,8.4,12.1c-7.9,2-13.8,8.9-13.8,17.5V65h36.7v-2.3C49.6,54.1,43.7,47.2,35.8,45.2z"/>
		<path id="XMLID_3459_" fill="#FFCC07" d="M52.1,28c4.9-1.8,8.4-6.5,8.4-12.1C60.5,8.8,54.7,3,47.6,3c-7.1,0-12.9,5.8-12.9,12.9
			c0,5.5,3.5,10.2,8.4,12.1c-7.9,2-13.8,9.2-13.8,17.8V65h20.4h16.3V45.8C65.9,37.2,60.1,30,52.1,28z"/>
	</g>
</g>
</svg>
