<svg xmlns="http://www.w3.org/2000/svg" width="16" height="16"><style type="text/css">.st0{fill:#EE0000;} .st1{fill:#FFCC02;} .st2{fill:#020202;}</style><path class="st0" d="M12.9 13.5l-11.4.1c-1.1 0-1.5-2-1.5-2v-9.6c0-1.1.9-2 2-2h10l4 8-1.4 2.9-1.7 2.6z"/><circle class="st1" cx="7" cy="8" r="5"/><path class="st2" d="M13.4 12c-.2 0-.4-.3-.6-.7-.3-.5-.7-1.3-1.5-1.3s-1.2.7-1.5 1.3c-.3.4-.5.7-.7.7-.2 0-.4-.3-.6-.7-.3-.6-.7-1.3-1.5-1.3s-1.2.7-1.5 1.3c-.3.4-.4.7-.7.7s-.4-.3-.6-.7c-.3-.6-.7-1.3-1.5-1.3s-1.3.7-1.5 1.3c-.3.4-.5.7-.7.7-.1 0-.3-.1-.5-.3v2.3c0 1.1.9 2 2 2h10l2.6-5.1c-.4.5-.8 1.1-1.2 1.1z"/></svg>